<svg width="74" height="75" viewBox="0 0 74 75" fill="none" xmlns="http://www.w3.org/2000/svg">
<g filter="url(#filter0_dd_1_699)">
<rect x="11.9902" y="2.97998" width="50" height="50" rx="8" fill="#0042DA"/>
<path d="M43.2402 31.8863C42.8193 31.8862 42.4028 31.9713 42.0157 32.1366C41.6287 32.302 41.2792 32.544 40.9883 32.8482L33.7617 28.7823C33.9017 28.2566 33.9017 27.7035 33.7617 27.1778L40.9883 23.1119C41.5145 23.6575 42.2216 23.9925 42.9771 24.0541C43.7326 24.1158 44.4846 23.8999 45.0924 23.4468C45.7001 22.9938 46.1218 22.3347 46.2785 21.5931C46.4351 20.8514 46.316 20.0781 45.9434 19.418C45.5709 18.7579 44.9704 18.2563 44.2545 18.0071C43.5386 17.7579 42.7564 17.7783 42.0545 18.0645C41.3526 18.3506 40.7791 18.8828 40.4414 19.5615C40.1038 20.2401 40.0251 21.0186 40.2202 21.7511L32.9936 25.817C32.562 25.3669 32.0055 25.0563 31.3959 24.925C30.7862 24.7938 30.1512 24.848 29.5726 25.0806C28.994 25.3132 28.4982 25.7137 28.149 26.2304C27.7999 26.7471 27.6133 27.3564 27.6133 27.9801C27.6133 28.6037 27.7999 29.2131 28.149 29.7298C28.4982 30.2465 28.994 30.6469 29.5726 30.8795C30.1512 31.1121 30.7862 31.1663 31.3959 31.0351C32.0055 30.9039 32.562 30.5932 32.9936 30.1432L40.2202 34.2091C40.0527 34.8399 40.0868 35.5073 40.3179 36.1177C40.549 36.7281 40.9653 37.2508 41.5086 37.6125C42.0519 37.9742 42.6948 38.1568 43.3471 38.1345C43.9994 38.1122 44.6283 37.8863 45.1457 37.4884C45.663 37.0905 46.0428 36.5406 46.2317 35.9159C46.4206 35.2911 46.4092 34.6229 46.199 34.005C45.9889 33.3871 45.5905 32.8505 45.0599 32.4706C44.5292 32.0906 43.8929 31.8863 43.2402 31.8863Z" fill="white"/>
</g>
<defs>
<filter id="filter0_dd_1_699" x="-0.00976562" y="0.97998" width="74" height="74" filterUnits="userSpaceOnUse" color-interpolation-filters="sRGB">
<feFlood flood-opacity="0" result="BackgroundImageFix"/>
<feColorMatrix in="SourceAlpha" type="matrix" values="0 0 0 0 0 0 0 0 0 0 0 0 0 0 0 0 0 0 127 0" result="hardAlpha"/>
<feMorphology radius="2" operator="erode" in="SourceAlpha" result="effect1_dropShadow_1_699"/>
<feOffset dy="4"/>
<feGaussianBlur stdDeviation="3"/>
<feComposite in2="hardAlpha" operator="out"/>
<feColorMatrix type="matrix" values="0 0 0 0 0 0 0 0 0 0 0 0 0 0 0 0 0 0 0.05 0"/>
<feBlend mode="normal" in2="BackgroundImageFix" result="effect1_dropShadow_1_699"/>
<feColorMatrix in="SourceAlpha" type="matrix" values="0 0 0 0 0 0 0 0 0 0 0 0 0 0 0 0 0 0 127 0" result="hardAlpha"/>
<feMorphology radius="3" operator="erode" in="SourceAlpha" result="effect2_dropShadow_1_699"/>
<feOffset dy="10"/>
<feGaussianBlur stdDeviation="7.5"/>
<feComposite in2="hardAlpha" operator="out"/>
<feColorMatrix type="matrix" values="0 0 0 0 0 0 0 0 0 0 0 0 0 0 0 0 0 0 0.1 0"/>
<feBlend mode="normal" in2="effect1_dropShadow_1_699" result="effect2_dropShadow_1_699"/>
<feBlend mode="normal" in="SourceGraphic" in2="effect2_dropShadow_1_699" result="shape"/>
</filter>
</defs>
</svg>
