<svg width="75" height="75" viewBox="0 0 75 75" fill="none" xmlns="http://www.w3.org/2000/svg">
<g filter="url(#filter0_dd_1_670)">
<rect x="12.3301" y="2.97998" width="50" height="50" rx="8" fill="#0042DA"/>
<path d="M37.3301 20.9487C36.7893 20.9487 36.2606 20.7884 35.8109 20.4879C35.3613 20.1874 35.0108 19.7604 34.8038 19.2608C34.5969 18.7611 34.5427 18.2113 34.6482 17.6809C34.7538 17.1505 35.0142 16.6633 35.3966 16.2809C35.779 15.8985 36.2662 15.638 36.7966 15.5325C37.327 15.427 37.8768 15.4812 38.3765 15.6881C38.8761 15.8951 39.3032 16.2456 39.6036 16.6952C39.9041 17.1449 40.0645 17.6735 40.0645 18.2144C40.0637 18.9393 39.7753 19.6344 39.2627 20.147C38.7501 20.6596 38.055 20.948 37.3301 20.9487Z" fill="white"/>
<path d="M45.9233 20.9877L45.9014 20.9936L45.8809 20.9999C45.832 21.0136 45.7832 21.0283 45.7344 21.0434C44.8257 21.31 40.4155 22.5532 37.3086 22.5532C34.4214 22.5532 30.4102 21.4789 29.127 21.1142C28.9992 21.0648 28.8688 21.0227 28.7363 20.9882C27.8086 20.7441 27.1738 21.6865 27.1738 22.5478C27.1738 23.4008 27.9404 23.8071 28.7144 24.0986V24.1122L33.3638 25.5644C33.8389 25.7465 33.9658 25.9325 34.0278 26.0937C34.2295 26.6108 34.0684 27.6347 34.0112 27.9921L33.728 30.1894L32.1563 38.7924C32.1514 38.8158 32.147 38.8398 32.1431 38.8642L32.1318 38.9262C32.0186 39.7148 32.5977 40.4799 33.6943 40.4799C34.6514 40.4799 35.0737 39.8193 35.2568 38.9203C35.4399 38.0214 36.624 31.2265 37.3076 31.2265C37.9912 31.2265 39.3994 38.9203 39.3994 38.9203C39.5825 39.8193 40.0049 40.4799 40.9619 40.4799C42.0615 40.4799 42.6406 39.7114 42.5244 38.9203C42.5144 38.8538 42.5021 38.7877 42.4873 38.7221L40.894 30.1904L40.6113 27.9931C40.4067 26.7133 40.5713 26.2905 40.627 26.1913C40.6284 26.189 40.6298 26.1866 40.6309 26.184C40.6836 26.0864 40.9238 25.8676 41.4844 25.6572L45.8438 24.1332C45.8705 24.1261 45.8969 24.1176 45.9229 24.1078C46.7041 23.8149 47.4854 23.4096 47.4854 22.5488C47.4854 21.6879 46.8511 20.7441 45.9233 20.9877Z" fill="white"/>
</g>
<defs>
<filter id="filter0_dd_1_670" x="0.330078" y="0.97998" width="74" height="74" filterUnits="userSpaceOnUse" color-interpolation-filters="sRGB">
<feFlood flood-opacity="0" result="BackgroundImageFix"/>
<feColorMatrix in="SourceAlpha" type="matrix" values="0 0 0 0 0 0 0 0 0 0 0 0 0 0 0 0 0 0 127 0" result="hardAlpha"/>
<feMorphology radius="2" operator="erode" in="SourceAlpha" result="effect1_dropShadow_1_670"/>
<feOffset dy="4"/>
<feGaussianBlur stdDeviation="3"/>
<feComposite in2="hardAlpha" operator="out"/>
<feColorMatrix type="matrix" values="0 0 0 0 0 0 0 0 0 0 0 0 0 0 0 0 0 0 0.05 0"/>
<feBlend mode="normal" in2="BackgroundImageFix" result="effect1_dropShadow_1_670"/>
<feColorMatrix in="SourceAlpha" type="matrix" values="0 0 0 0 0 0 0 0 0 0 0 0 0 0 0 0 0 0 127 0" result="hardAlpha"/>
<feMorphology radius="3" operator="erode" in="SourceAlpha" result="effect2_dropShadow_1_670"/>
<feOffset dy="10"/>
<feGaussianBlur stdDeviation="7.5"/>
<feComposite in2="hardAlpha" operator="out"/>
<feColorMatrix type="matrix" values="0 0 0 0 0 0 0 0 0 0 0 0 0 0 0 0 0 0 0.1 0"/>
<feBlend mode="normal" in2="effect1_dropShadow_1_670" result="effect2_dropShadow_1_670"/>
<feBlend mode="normal" in="SourceGraphic" in2="effect2_dropShadow_1_670" result="shape"/>
</filter>
</defs>
</svg>
