<svg width="177" height="138" viewBox="0 0 177 138" fill="none" xmlns="http://www.w3.org/2000/svg">
<path d="M9.14553 28.024C8.69753 28.024 8.38553 27.792 8.20953 27.328C8.03353 26.864 7.88953 26.24 7.77753 25.456L7.70553 24.856C7.46553 23.576 7.27353 22.304 7.12953 21.04C6.98553 19.76 6.84153 18.216 6.69753 16.408L6.55353 14.632C5.59353 14.648 4.22553 14.608 2.44953 14.512L1.96953 14.488C1.74553 14.472 1.58553 14.368 1.48953 14.176C1.40953 13.968 1.36953 13.688 1.36953 13.336H3.02553C5.80953 13.336 8.32153 13.44 10.5615 13.648C12.8015 13.856 13.9215 14.28 13.9215 14.92C13.9215 15.096 13.8895 15.216 13.8255 15.28C13.7775 15.344 13.6655 15.376 13.4895 15.376C12.8495 15.328 11.8575 15.192 10.5135 14.968C10.2095 14.92 9.84153 14.864 9.40953 14.8C8.97753 14.736 8.48953 14.672 7.94553 14.608C7.94553 16.928 8.28953 20.496 8.97753 25.312C9.00953 25.552 9.12153 25.896 9.31353 26.344C9.39353 26.536 9.46553 26.744 9.52953 26.968C9.60953 27.176 9.64953 27.368 9.64953 27.544C9.64953 27.768 9.61753 27.904 9.55353 27.952C9.48953 28 9.40953 28.024 9.31353 28.024C9.23353 28.024 9.17753 28.024 9.14553 28.024ZM17.5993 28C16.9433 26.72 16.4233 25.216 16.0393 23.488C15.6713 21.76 15.4873 20.264 15.4873 19C15.4873 18.504 15.5993 18.184 15.8233 18.04C15.9513 17.96 16.0473 17.92 16.1113 17.92C16.2233 17.92 16.3033 18.008 16.3513 18.184C16.4153 18.36 16.4793 18.68 16.5433 19.144L16.6633 20.008C16.8393 19.144 17.1753 18.464 17.6713 17.968C18.1833 17.456 18.8073 17.2 19.5433 17.2C20.3593 17.2 20.9673 17.36 21.3673 17.68C21.7673 17.984 21.9673 18.496 21.9673 19.216C21.1673 18.832 20.4393 18.64 19.7833 18.64C19.1593 18.64 18.6233 18.808 18.1753 19.144C17.7273 19.48 17.4153 19.976 17.2393 20.632C17.0953 21.08 17.0233 21.504 17.0233 21.904C17.0233 22.336 17.0793 22.744 17.1913 23.128C17.3193 23.496 17.5113 23.952 17.7673 24.496C18.0073 25.056 18.1913 25.536 18.3193 25.936C18.4633 26.336 18.5433 26.768 18.5593 27.232C18.5593 27.504 18.4633 27.704 18.2713 27.832C18.0793 27.944 17.8553 28 17.5993 28ZM29.493 39.352C28.405 39.352 27.429 39.12 26.565 38.656C25.717 38.192 25.037 37.656 24.525 37.048C24.013 36.44 23.725 35.944 23.661 35.56C23.597 35.208 23.677 34.936 23.901 34.744C24.141 34.552 24.437 34.472 24.789 34.504C25.285 35.688 25.877 36.6 26.565 37.24C27.253 37.88 28.237 38.216 29.517 38.248C30.413 38.264 31.125 37.688 31.653 36.52C32.197 35.368 32.581 33.952 32.805 32.272C33.029 30.608 33.141 28.968 33.141 27.352C33.141 26.52 33.117 25.84 33.069 25.312C31.853 26.8 30.301 27.544 28.413 27.544C26.781 27.544 25.525 26.768 24.645 25.216C23.781 23.664 23.221 21.912 22.965 19.96C22.933 19.768 22.917 19.496 22.917 19.144C22.917 18.136 23.245 17.632 23.901 17.632C23.965 17.632 24.053 18.032 24.165 18.832C24.341 20.096 24.557 21.232 24.813 22.24C25.069 23.248 25.493 24.168 26.085 25C26.693 25.816 27.493 26.224 28.485 26.224C29.269 26.224 30.069 25.968 30.885 25.456C31.717 24.928 32.317 24.344 32.685 23.704C32.685 22.488 32.525 21.4 32.205 20.44C31.901 19.464 31.741 18.944 31.725 18.88C31.693 18.528 31.677 18.304 31.677 18.208C31.677 17.888 31.725 17.656 31.821 17.512C31.933 17.368 32.093 17.296 32.301 17.296C32.525 17.296 32.781 17.752 33.069 18.664C33.357 19.576 33.613 20.768 33.837 22.24C34.061 23.712 34.213 25.248 34.293 26.848C34.325 27.68 34.341 28.296 34.341 28.696C34.341 31.768 33.957 34.312 33.189 36.328C32.437 38.344 31.205 39.352 29.493 39.352ZM43.861 28.024C43.493 28.024 43.197 27.488 42.973 26.416C42.749 25.328 42.605 24.392 42.541 23.608C42.477 22.824 42.389 21.584 42.277 19.888C42.261 19.616 42.253 19.264 42.253 18.832C42.253 18.288 42.293 17.912 42.373 17.704C42.469 17.496 42.621 17.392 42.829 17.392C43.005 17.392 43.141 17.432 43.237 17.512C43.349 17.576 43.445 17.688 43.525 17.848L43.501 18.808C43.501 19.832 43.549 20.8 43.645 21.712C43.757 22.624 43.925 23.848 44.149 25.384C44.277 26.056 44.365 26.608 44.413 27.04C44.445 27.264 44.405 27.488 44.293 27.712C44.181 27.92 44.037 28.024 43.861 28.024ZM43.261 14.824C42.909 14.824 42.645 14.688 42.469 14.416C42.309 14.144 42.229 13.808 42.229 13.408C42.229 13.232 42.237 13.104 42.253 13.024C42.237 12.768 42.381 12.64 42.685 12.64C42.909 12.64 43.133 12.696 43.357 12.808C43.597 12.904 43.669 12.976 43.573 13.024C43.733 13.44 43.813 13.768 43.813 14.008C43.813 14.216 43.765 14.384 43.669 14.512C43.573 14.624 43.437 14.728 43.261 14.824ZM50.4295 28C50.2695 28.032 50.1655 28.048 50.1175 28.048C49.6215 28.048 49.2775 27.68 49.0855 26.944C48.9095 26.208 48.8215 25.176 48.8215 23.848C48.8215 23.304 48.8375 22.456 48.8695 21.304C48.9015 20.6 48.9175 20.072 48.9175 19.72C46.9495 19.72 45.9655 19.496 45.9655 19.048C45.9655 18.904 45.9815 18.792 46.0135 18.712C46.0615 18.632 46.1575 18.592 46.3015 18.592L48.9175 18.424C48.9015 17.64 48.8615 16.784 48.7975 15.856C48.7335 15.024 48.6935 14.256 48.6775 13.552C48.6775 13.376 48.7495 13.256 48.8935 13.192C49.0375 13.112 49.1895 13.072 49.3495 13.072C49.5415 13.072 49.7015 13.176 49.8295 13.384C49.9575 13.576 50.0215 13.776 50.0215 13.984L50.1895 18.376L52.1815 18.472C52.4855 18.44 52.7415 18.496 52.9495 18.64C53.1735 18.784 53.2935 19.024 53.3095 19.36C52.9735 19.504 52.6055 19.592 52.2055 19.624C51.8055 19.656 51.1335 19.672 50.1895 19.672C50.1895 21.16 50.2615 23.608 50.4055 27.016C50.4055 27.368 50.4055 27.616 50.4055 27.76C50.4215 27.888 50.4295 27.968 50.4295 28ZM65.596 28.024C64.652 28.024 63.796 27.816 63.028 27.4C62.276 26.968 61.684 26.376 61.252 25.624C60.836 24.856 60.628 23.984 60.628 23.008C60.628 21.408 61.212 20.216 62.38 19.432C63.564 18.648 65.012 18.256 66.724 18.256C67.508 18.256 68.236 18.448 68.908 18.832C69.596 19.216 70.148 19.768 70.564 20.488C70.98 21.208 71.188 22.04 71.188 22.984C71.188 24.008 70.924 24.904 70.396 25.672C69.868 26.424 69.172 27.008 68.308 27.424C67.46 27.824 66.556 28.024 65.596 28.024ZM65.332 26.656C66.82 26.656 67.948 26.32 68.716 25.648C69.484 24.976 69.868 23.992 69.868 22.696C69.868 21.816 69.564 21.056 68.956 20.416C68.364 19.776 67.532 19.456 66.46 19.456C65.74 19.456 65.012 19.592 64.276 19.864C63.54 20.136 62.932 20.544 62.452 21.088C61.972 21.632 61.732 22.288 61.732 23.056C61.732 23.696 61.892 24.296 62.212 24.856C62.532 25.4 62.964 25.84 63.508 26.176C64.068 26.496 64.676 26.656 65.332 26.656ZM84.1367 27.88C83.8487 27.88 83.6167 27.76 83.4407 27.52C83.2807 27.264 83.1367 26.88 83.0087 26.368C82.8807 25.84 82.6807 24.928 82.4087 23.632C82.1367 24.704 81.6247 25.56 80.8727 26.2C80.1207 26.824 79.2007 27.136 78.1127 27.136C77.1207 27.136 76.2807 26.792 75.5927 26.104C74.9207 25.4 74.4167 24.48 74.0807 23.344C73.7447 22.192 73.5767 20.952 73.5767 19.624C73.5767 19.016 73.6327 18.496 73.7447 18.064C73.8727 17.616 74.0247 17.28 74.2007 17.056C74.3927 16.832 74.5767 16.728 74.7527 16.744C74.9447 16.744 75.0407 16.872 75.0407 17.128C75.0407 17.336 74.9847 17.664 74.8727 18.112C74.7607 18.608 74.7047 19.176 74.7047 19.816C74.7047 20.776 74.8407 21.712 75.1127 22.624C75.4007 23.536 75.8167 24.288 76.3607 24.88C76.9207 25.456 77.5767 25.744 78.3287 25.744C78.9527 25.744 79.5207 25.56 80.0327 25.192C80.5447 24.824 80.9447 24.36 81.2327 23.8C81.5367 23.24 81.6887 22.688 81.6887 22.144V18.328C81.8647 17.992 82.1047 17.824 82.4087 17.824C82.6807 17.824 82.8647 18.056 82.9607 18.52C83.0567 18.984 83.1047 19.64 83.1047 20.488C83.1047 21.208 83.0967 21.76 83.0807 22.144C83.1767 22.672 83.3207 23.208 83.5127 23.752C83.7207 24.296 83.9767 24.912 84.2807 25.6C84.6487 26.448 84.8327 26.968 84.8327 27.16C84.8327 27.64 84.6007 27.88 84.1367 27.88ZM90.6248 28C90.4648 28.032 90.3608 28.048 90.3128 28.048C89.8168 28.048 89.4728 27.68 89.2808 26.944C89.1048 26.208 89.0168 25.176 89.0168 23.848C89.0168 23.304 89.0328 22.456 89.0648 21.304C89.0968 20.6 89.1128 20.072 89.1128 19.72C87.1448 19.72 86.1608 19.496 86.1608 19.048C86.1608 18.904 86.1768 18.792 86.2088 18.712C86.2568 18.632 86.3528 18.592 86.4968 18.592L89.1128 18.424C89.0968 17.64 89.0568 16.784 88.9928 15.856C88.9288 15.024 88.8888 14.256 88.8728 13.552C88.8728 13.376 88.9448 13.256 89.0888 13.192C89.2328 13.112 89.3848 13.072 89.5448 13.072C89.7368 13.072 89.8968 13.176 90.0248 13.384C90.1528 13.576 90.2168 13.776 90.2168 13.984L90.3848 18.376L92.3768 18.472C92.6808 18.44 92.9368 18.496 93.1448 18.64C93.3688 18.784 93.4888 19.024 93.5048 19.36C93.1688 19.504 92.8008 19.592 92.4008 19.624C92.0008 19.656 91.3288 19.672 90.3848 19.672C90.3848 21.16 90.4568 23.608 90.6008 27.016C90.6008 27.368 90.6008 27.616 90.6008 27.76C90.6168 27.888 90.6248 27.968 90.6248 28ZM95.3753 22.816C95.1513 22.816 95.0153 22.72 94.9673 22.528C94.8393 21.68 94.7753 20.272 94.7753 18.304L94.7993 15.76C94.8153 15.216 94.8233 14.44 94.8233 13.432C94.8233 12.456 94.7993 11.672 94.7513 11.08C94.7673 11 94.8393 10.936 94.9673 10.888C95.1113 10.824 95.2793 10.792 95.4713 10.792C95.6473 10.792 95.7913 10.816 95.9033 10.864C95.9193 11.92 95.9513 13.64 95.9993 16.024C96.0633 18.392 96.1113 20.176 96.1433 21.376L96.1673 21.928C96.1673 22.52 95.9673 22.816 95.5673 22.816H95.3753ZM95.3273 28.024C94.9433 28.024 94.6633 27.928 94.4873 27.736C94.3273 27.528 94.2473 27.232 94.2473 26.848C94.2473 26.4 94.4073 26.064 94.7273 25.84C95.0633 25.616 95.4873 25.504 95.9993 25.504C96.3033 25.504 96.5513 25.656 96.7433 25.96C96.9353 26.248 97.0313 26.544 97.0313 26.848C97.0313 27.168 96.8313 27.448 96.4313 27.688C96.0473 27.912 95.6793 28.024 95.3273 28.024Z" fill="white" fill-opacity="0.92"/>
<path d="M85.2876 97.4594C113.612 90.0667 122.849 73.3591 124.886 66.7769C127.575 58.0863 131.381 45.8497 113.492 30.8657" stroke="white" stroke-width="1.6129"/>
<path d="M94.3448 84.9961C93.6319 87.8438 83.4326 98.2514 83.4326 98.2514C83.4326 98.2514 92.6136 98.0477 96.5837 98.8601C97.833 99.1158 100.828 100.379 102.171 102.086" stroke="white" stroke-width="1.6129"/>
</svg>
